<svg viewBox="0 0 500 500" width="500" height="500" preserveAspectRatio="none" version="1.1"
    xmlns="http://www.w3.org/2000/svg" xmlns:xlink="http://www.w3.org/1999/xlink">
    <!--  -->
    <g transform="translate(125,30)" style="opacity: 1;">
        <g transform="translate(-2,-2)" filter="" style="opacity: 1;">
            <g>
                <rect fill="rgba(0,0,0,0)" width="276.74179455557" height="276.74179455557" x="-10" y="-10"></rect>
                <svg viewBox="324.27239605666 157.64711547708 154.78258043549 154.78258043548996"
                    width="256.74179455557" height="256.74179455557" preserveAspectRatio="none" version="1.1"
                    xmlns="http://www.w3.org/2000/svg" style="background: transparent;">
                    <mask is-reverse="false">
                        <g
                            transform="translate(325.27239605666,158.64711547708) rotate(0,76.391290217745,76.391290217745) scale(1,1)">
                            <svg xmlns="http://www.w3.org/2000/svg" viewBox="0 0 152.78258043549 152.78258043549"
                                width="152.78258043549" height="152.78258043549" preserveAspectRatio="none">
                                <rect width="152.78258043549" height="152.78258043549" x="0" y="0" fill="#ffffff" rx="0"
                                    ry="0" stroke-width="0">
                                </rect>
                            </svg>
                        </g>
                    </mask>
                    <g>
                        <g transform="translate(325.27239605666,158.64711547708) rotate(0,76.391290217745,76.391290217745) scale(1,1)"
                            display="inline" opacity="1">
                            <g style="" display="inline">
                                <svg xmlns="http://www.w3.org/2000/svg" viewBox="0 0 152.78258043549 152.78258043549"
                                    width="152.78258043549" height="152.78258043549" preserveAspectRatio="none">
                                    <rect width="152.78258043549" height="152.78258043549" x="0" y="0" fill="#000000"
                                        rx="0" ry="0" stroke-width="0"></rect>
                                </svg>
                            </g>
                        </g>
                    </g>
                    <g>
                        <g transform="translate(-327.77937947235,-514.9254784483301) rotate(0,718.95141803795,771.95141803795) scale(1,1)"
                            display="inline" opacity="1">
                            <g style="" display="inline">
                                <svg xmlns="http://www.w3.org/2000/svg" version="1.1"
                                    xmlns:xlink="http://www.w3.org/1999/xlink" width="1437.9028360759"
                                    height="1543.9028360759" viewBox="0 0 1437.9028360759 1543.9028360759"
                                    data-ligature="true" preserveAspectRatio="none">
                                    <g data-role="text" data-width="150.56480185103482" data-height="257"
                                        transform="translate(643.6690171124326, 643.45141803795)">
                                        <path
                                            d="M17.80 80.64L17.80 80.64Q10.51 80.64 5.36 78.71L5.36 78.71Q-2.79 75.71-6.54 71.74Q-10.30 67.78-10.30 63.27L-10.30 63.27Q-10.30 57.48-4.61 51.15Q1.07 44.83 11.15 38.93Q21.23 33.03 34.32 28.63Q47.40 24.24 62.20 22.09L62.20 22.09Q68.85 21.02 76.89 20.38Q84.93 19.73 93.19 19.20Q101.45 18.66 108.10 18.66L108.10 18.66Q116.03 5.15 121.07-6.86Q126.11-18.87 129.97-34.53L129.97-34.53L130.83-37.96Q126.76-34.10 119.36-28.63Q111.96-23.16 102.20-17.69Q92.44-12.23 81.40-8.58Q70.35-4.93 58.77-4.93L58.77-4.93Q49.76-4.93 41.39-7.72L41.39-7.72Q32.39-10.94 25.20-18.55Q18.02-26.17 13.83-37.43Q9.65-48.69 9.65-62.41L9.65-62.41Q9.65-72.49 12.23-83.97Q14.80-95.44 20.59-107.45L20.59-107.45Q13.94-114.32 10.19-122.68Q6.43-131.05 6.43-139.84L6.43-139.84Q6.43-147.56 9.65-155.18Q12.87-162.79 19.73-169.87L19.73-169.87Q21.66-172.01 23.38-172.01L23.38-172.01Q24.24-172.01 24.24-171.16L24.24-171.16Q24.24-169.87 22.73-168.15L22.73-168.15Q17.80-162.15 15.44-155.50Q13.08-148.85 13.08-142.20L13.08-142.20Q13.08-134.69 15.98-127.40Q18.87-120.11 24.24-113.89L24.24-113.89Q25.31-116.03 26.49-118.18Q27.67-120.32 28.95-122.47L28.95-122.47Q39.25-139.20 54.16-151.21Q69.06-163.22 86.01-169.76Q102.95-176.30 119.04-176.30L119.04-176.30Q121.82-176.30 124.51-176.09Q127.19-175.87 129.97-175.44L129.97-175.44Q150.78-172.23 161.07-161.50Q171.37-150.78 171.37-137.48L171.37-137.48Q171.37-128.26 166.33-119.04Q161.29-109.81 151.10-102.09Q140.91-94.37 125.79-89.65Q110.67-84.93 90.73-84.51L90.73-84.51Q75.07-84.29 59.84-88.47Q44.61-92.66 34.10-99.52L34.10-99.52Q28.74-88.15 26.27-77.32Q23.81-66.49 23.81-57.05L23.81-57.05Q23.81-41.18 30.46-29.81Q37.11-18.45 48.90-14.58L48.90-14.58Q52.33-13.51 55.87-13.08Q59.41-12.65 62.84-12.65L62.84-12.65Q72.49-12.65 82.25-15.55Q92.01-18.45 100.38-23.16Q108.74-27.88 114.64-33.14Q120.54-38.39 122.47-42.90L122.47-42.90Q127.40-54.05 132.23-58.45Q137.05-62.84 140.91-62.84L140.91-62.84Q144.13-62.84 146.38-59.95Q148.63-57.05 147.99-52.12L147.99-52.12Q145.85-34.32 138.23-17.59Q130.62-0.86 118.61 18.66L118.61 18.66Q133.19 18.87 144.88 20.27Q156.57 21.66 166.01 24.02L166.01 24.02Q168.58 24.67 169.55 25.63Q170.51 26.60 170.51 27.24L170.51 27.24Q170.51 28.74 167.94 28.74L167.94 28.74Q166.65 28.74 164.29 28.10L164.29 28.10Q159.36 26.81 151.21 25.84Q143.06 24.88 133.73 24.45Q124.40 24.02 115.82 24.02L115.82 24.02Q106.81 36.89 94.48 47.29Q82.15 57.70 68.42 65.20Q54.69 72.71 41.50 76.68Q28.31 80.64 17.80 80.64ZM84.93-90.94L84.93-90.94Q87.29-90.94 89.65-91.05Q92.01-91.15 94.37-91.37L94.37-91.37Q116.03-93.51 131.15-101.34Q146.28-109.17 154.10-119.89Q161.93-130.62 161.93-140.91L161.93-140.91Q161.93-150.99 154.32-158.82Q146.70-166.65 131.05-169.01L131.05-169.01Q128.90-169.44 127.51-169.44Q126.11-169.44 123.75-169.44L123.75-169.44Q109.81-169.44 94.91-162.79Q80.00-156.14 66.60-144.24Q53.19-132.33 43.54-116.68L43.54-116.68Q41.18-112.60 39.89-110.46Q38.61-108.31 36.89-105.31L36.89-105.31Q45.68-98.66 58.23-94.80Q70.78-90.94 84.93-90.94ZM17.59 74.00L17.59 74.00Q25.95 74.00 37.32 70.89Q48.69 67.78 61.02 61.45Q73.35 55.12 84.72 45.90Q96.09 36.68 104.67 24.45L104.67 24.45Q94.37 24.67 84.40 25.42Q74.42 26.17 64.56 27.88L64.56 27.88Q54.05 29.60 42.79 33.78Q31.53 37.96 21.98 43.54Q12.44 49.12 6.54 54.80Q0.64 60.48 0.64 65.20L0.64 65.20Q0.64 67.99 3.11 70.13Q5.58 72.28 10.94 73.35L10.94 73.35Q13.94 74.00 17.59 74.00Z"
                                            transform="translate(0 176) " fill="#ffffff" stroke="#ffffff"
                                            stroke-width="0.357" data-glyph-w="159.477119043105"
                                            data-glyph-h="268.52896" data-glyph-ascender="182.52248"
                                            data-glyph-descender="-86.00648" data-kerning="0"></path>
                                    </g>
                                </svg>
                            </g>
                        </g>
                    </g>
                </svg>
            </g>
        </g>
    </g>
    <!--  -->
    <g transform="translate(-10,300)" style="opacity: 1;">
        <svg xmlns="http://www.w3.org/2000/svg" version="1.1" xmlns:xlink="http://www.w3.org/1999/xlink" width="520"
            height="140" viewBox="0 0 520 140">
            <g data-role="text" transform="translate(5 0)">
                <path
                    d="M104.14-6.54L117.09-6.54L113.46 11.87L73.38 11.87L73.38-41.05L50.01-41.05L31.24 12.35L9.93 12.35L28.94-41.05L6.90-41.05L6.90-56.06L51.95-56.06L51.95-97.11L71.08-97.11L71.08-56.06L114.19-56.06L114.19-41.05L93.36-41.05L93.36-1.82L103.05-1.82L104.14-6.54ZM42.38-61.27L22.52-61.27L10.41-93.12L29.91-93.12L42.38-61.27ZM110.92-93.12L98.81-61.27L78.95-61.27L91.42-93.12L110.92-93.12Z"
                    transform="translate(0 114) " fill="rgb(0, 0, 0)" stroke="rgb(0, 0, 0)" stroke-width="0.202"
                    data-glyph-w="128.47437120206826" data-glyph-h="121.09" data-glyph-ascender="102.9265"
                    data-glyph-descender="-18.1635" data-kerning="0"></path>
                <path
                    d="M108.98-49.89L115.04-49.89L115.04-37.30L38.02-37.30L38.02-49.89L51.58-49.89L54.13-63.81L42.99-63.81L42.99-76.29L56.43-76.29L57.76-84.04L41.53-84.04L41.53-96.75L111.16-96.75L111.16-84.04L77.26-84.04L75.68-76.29L108.98-76.29L108.98-49.89ZM33.06-75.80L13.56-75.80L8.96-96.51L28.58-96.51L33.06-75.80ZM31.73-65.63L31.73-8.36L38.02-11.02L38.02 3.39L14.17 12.11L14.17-52.19L7.75-52.19L7.75-65.63L31.73-65.63ZM73.14-63.81L70.35-49.89L90.09-49.89L90.09-63.81L73.14-63.81ZM42.50 10.53L42.50-32.45L109.34-32.45L109.34 10.53L42.50 10.53ZM61.27-19.86L61.27-2.79L90.94-2.79L90.94-19.86L61.27-19.86Z"
                    transform="translate(128.47437120206826 114) " fill="rgb(0, 0, 0)" stroke="rgb(0, 0, 0)"
                    stroke-width="0.202" data-glyph-w="128.47437120206826" data-glyph-h="121.09"
                    data-glyph-ascender="102.9265" data-glyph-descender="-18.1635" data-kerning="0"></path>
                <path
                    d="M49.28-57.88L34.87-57.88L34.87 11.99L19.86 11.99L19.86-57.88L6.30-57.88L6.30-70.84L19.86-70.84L19.86-79.31L7.51-77.74L7.51-91.79L48.07-96.75L48.07-83.07L34.87-81.37L34.87-70.84L49.28-70.84L49.28-57.88ZM98.20-1.82L100.26-7.99L115.64-7.99L109.95 10.53L66.84 10.53L66.84 1.21L62.36 9.81L45.65 9.81L47.71 6.05L38.14 6.05L36.57-52.80L47.47-52.80L49.04 3.39L61.51-20.10L50.13-20.10L51.46-74.71L64.18-74.71L62.97-22.64L66.84-30.03L66.84-79.56L82.46-79.56L82.46-59.33L94.33-81.61L80.16-81.61L75.68-95.90L92.15-95.90L95.78-84.40L98.45-89.36L114.31-89.36L82.46-28.58L82.46-1.82L98.20-1.82ZM97.84-55.70L113.58-55.70L116.73-11.62L100.99-11.62L97.84-55.70ZM4.36 7.27L7.39-52.80L18.04-52.80L15.26 7.27L4.36 7.27Z"
                    transform="translate(256.9487424041365 114) " fill="rgb(0, 0, 0)" stroke="rgb(0, 0, 0)"
                    stroke-width="0.202" data-glyph-w="128.47437120206826" data-glyph-h="121.09"
                    data-glyph-ascender="102.9265" data-glyph-descender="-18.1635" data-kerning="0"></path>
                <path
                    d="M30.39-59.94L30.39-12.71L40.08-14.65L40.08 0L5.93 6.78L5.93-7.87L13.44-9.32L13.44-59.94L5.45-59.94L5.45-73.99L13.44-73.99L13.44-96.87L30.39-96.87L30.39-73.99L38.75-73.99L38.75-59.94L30.39-59.94ZM111.52-91.91L111.52-80.52L43.47-80.52L43.47-91.91L67.33-91.91L65.99-96.87L85.85-96.87L87.67-91.91L111.52-91.91ZM114.07-70.84L114.07-59.46L39.96-59.46L39.96-70.84L52.80-70.84L49.89-77.98L67.08-77.98L70.72-70.84L84.40-70.84L89.12-77.98L106.32-77.98L102.08-70.84L114.07-70.84ZM105.71-4.48L116.13-4.48L113.22 11.14L82.10 11.14L82.10-13.56L72.90-13.56L62.48 11.87L45.17 11.87L41.53-0.97L49.65-0.97L54.85-13.56L43.47-13.56L43.47-54.37L111.16-54.37L111.16-13.56L98.45-13.56L98.45 0L104.86 0L105.71-4.48ZM95.06-44.68L59.46-44.68L59.46-38.99L95.06-38.99L95.06-44.68ZM59.46-29.42L59.46-23.49L95.06-23.49L95.06-29.42L59.46-29.42Z"
                    transform="translate(385.42311360620477 114) " fill="rgb(0, 0, 0)" stroke="rgb(0, 0, 0)"
                    stroke-width="0.202" data-glyph-w="128.47437120206826" data-glyph-h="121.09"
                    data-glyph-ascender="102.9265" data-glyph-descender="-18.1635" data-kerning="0"></path>
            </g>
        </svg>
    </g>
    <!--  -->
    <g transform="translate(50, 450)" style="opacity: 1;">
        <svg xmlns="http://www.w3.org/2000/svg" version="1.1" xmlns:xlink="http://www.w3.org/1999/xlink" width="400"
            height="30" viewBox="0 0 400 30">
            <g transform="translate(10, -7)">
                <path
                    d="M14.79-10.53C14.79-14.12 12.76-16.10 7.76-16.10L2.23-16.10L2.23 0L4.95 0L4.95-4.72L7.81-4.72C12.42-4.72 14.79-6.34 14.79-10.53ZM12.00-10.53C12.00-8.64 11.36-7.19 8.11-7.19L4.95-7.19L4.95-13.64L7.72-13.64C10.55-13.64 12.00-12.93 12.00-10.53Z"
                    transform="translate(0 31) " fill="rgb(0, 0, 0)" stroke="rgb(0, 0, 0)" stroke-width="0.038"
                    data-glyph-w="18.13136863930884" data-glyph-h="28.085759999999997"
                    data-glyph-ascender="22.302719999999997" data-glyph-descender="-5.78304" data-kerning="0">
                </path>
                <path
                    d="M2.23 0L4.95 0L4.95-6.59L12.95-6.59L12.95 0L15.67 0L15.67-16.10L12.95-16.10L12.95-9.12L4.95-9.12L4.95-16.10L2.23-16.10Z"
                    transform="translate(18.13136863930884 31) " fill="rgb(0, 0, 0)" stroke="rgb(0, 0, 0)"
                    stroke-width="0.038" data-glyph-w="20.27408863930884" data-glyph-h="28.085759999999997"
                    data-glyph-ascender="22.302719999999997" data-glyph-descender="-5.78304" data-kerning="0">
                </path>
                <path
                    d="M9.68-14.01C12.90-14.01 15.37-11.38 15.37-8.16C15.37-4.95 12.90-2.33 9.68-2.33C6.45-2.33 3.99-4.95 3.99-8.16C3.99-11.38 6.45-14.01 9.68-14.01ZM9.68 0.16C14.45 0.16 18.16-3.41 18.16-8.18C18.16-12.93 14.45-16.50 9.68-16.50C4.91-16.50 1.20-12.93 1.20-8.18C1.20-3.41 4.91 0.16 9.68 0.16Z"
                    transform="translate(38.405457278617675 31) " fill="rgb(0, 0, 0)" stroke="rgb(0, 0, 0)"
                    stroke-width="0.038" data-glyph-w="21.725608639308838" data-glyph-h="28.085759999999997"
                    data-glyph-ascender="22.302719999999997" data-glyph-descender="-5.78304" data-kerning="0">
                </path>
                <path d="M8.32-13.62L13.20-13.62L13.20-16.10L0.71-16.10L0.71-13.62L5.60-13.62L5.60 0L8.32 0Z"
                    transform="translate(59.69331170288161 31) " fill="rgb(0, 0, 0)" stroke="rgb(0, 0, 0)"
                    stroke-width="0.038" data-glyph-w="16.28816863930884" data-glyph-h="28.085759999999997"
                    data-glyph-ascender="22.302719999999997" data-glyph-descender="-5.78304"
                    data-kerning="-0.43775421504490103"></path>
                <path
                    d="M9.68-14.01C12.90-14.01 15.37-11.38 15.37-8.16C15.37-4.95 12.90-2.33 9.68-2.33C6.45-2.33 3.99-4.95 3.99-8.16C3.99-11.38 6.45-14.01 9.68-14.01ZM9.68 0.16C14.45 0.16 18.16-3.41 18.16-8.18C18.16-12.93 14.45-16.50 9.68-16.50C4.91-16.50 1.20-12.93 1.20-8.18C1.20-3.41 4.91 0.16 9.68 0.16Z"
                    transform="translate(75.54372612714555 31) " fill="rgb(0, 0, 0)" stroke="rgb(0, 0, 0)"
                    stroke-width="0.038" data-glyph-w="21.725608639308838" data-glyph-h="28.085759999999997"
                    data-glyph-ascender="22.302719999999997" data-glyph-descender="-5.78304"
                    data-kerning="-0.43775421504490103"></path>
                <path
                    d="M13.39-7.83L13.39-3.41C12.30-2.72 11.01-2.42 9.61-2.42C6.57-2.42 4.03-4.56 4.03-8.11C4.03-11.61 6.61-13.82 9.79-13.82C11.40-13.82 12.60-13.52 13.92-12.40L15.37-14.47C14.05-15.62 12.23-16.50 9.68-16.50C4.95-16.50 1.20-12.93 1.20-8.16C1.20-3.27 4.86 0.18 9.58 0.18C12.60 0.18 14.77-0.85 16.10-2.33L16.10-7.83Z"
                    transform="translate(97.26933476645439 31) " fill="rgb(0, 0, 0)" stroke="rgb(0, 0, 0)"
                    stroke-width="0.038" data-glyph-w="19.81328863930884" data-glyph-h="28.085759999999997"
                    data-glyph-ascender="22.302719999999997" data-glyph-descender="-5.78304" data-kerning="0">
                </path>
                <path
                    d="M15.09-10.87C15.09-14.47 13.22-16.10 8.23-16.10L2.23-16.10L2.23 0L4.95 0L4.95-5.41L7.81-5.41L8.52-5.41L12.37 0L15.83 0L11.61-5.85C13.85-6.52 15.09-8.02 15.09-10.87ZM12.30-10.87C12.30-8.94 11.59-7.88 8.34-7.88L4.95-7.88L4.95-13.64L8.41-13.64C11.29-13.64 12.30-13.04 12.30-10.87Z"
                    transform="translate(117.08262340576323 31) " fill="rgb(0, 0, 0)" stroke="rgb(0, 0, 0)"
                    stroke-width="0.038" data-glyph-w="19.14512863930884" data-glyph-h="28.085759999999997"
                    data-glyph-ascender="22.302719999999997" data-glyph-descender="-5.78304" data-kerning="0">
                </path>
                <path
                    d="M4.52-3.66L12.58-3.66L14.19 0L17.10 0L10.00-16.10L7.10-16.10L0 0L2.90 0ZM11.47-6.17L5.62-6.17L8.55-12.81Z"
                    transform="translate(136.22775204507207 31) " fill="rgb(0, 0, 0)" stroke="rgb(0, 0, 0)"
                    stroke-width="0.038" data-glyph-w="19.46768863930884" data-glyph-h="28.085759999999997"
                    data-glyph-ascender="22.302719999999997" data-glyph-descender="-5.78304" data-kerning="0">
                </path>
                <path
                    d="M14.79-10.53C14.79-14.12 12.76-16.10 7.76-16.10L2.23-16.10L2.23 0L4.95 0L4.95-4.72L7.81-4.72C12.42-4.72 14.79-6.34 14.79-10.53ZM12.00-10.53C12.00-8.64 11.36-7.19 8.11-7.19L4.95-7.19L4.95-13.64L7.72-13.64C10.55-13.64 12.00-12.93 12.00-10.53Z"
                    transform="translate(155.6954406843809 31) " fill="rgb(0, 0, 0)" stroke="rgb(0, 0, 0)"
                    stroke-width="0.038" data-glyph-w="18.13136863930884" data-glyph-h="28.085759999999997"
                    data-glyph-ascender="22.302719999999997" data-glyph-descender="-5.78304" data-kerning="0">
                </path>
                <path
                    d="M2.23 0L4.95 0L4.95-6.59L12.95-6.59L12.95 0L15.67 0L15.67-16.10L12.95-16.10L12.95-9.12L4.95-9.12L4.95-16.10L2.23-16.10Z"
                    transform="translate(173.82680932368976 31) " fill="rgb(0, 0, 0)" stroke="rgb(0, 0, 0)"
                    stroke-width="0.038" data-glyph-w="20.27408863930884" data-glyph-h="28.085759999999997"
                    data-glyph-ascender="22.302719999999997" data-glyph-descender="-5.78304" data-kerning="0">
                </path>
                <path d="M0,0Z" transform="translate(194.1008979629986 31) " fill="rgb(0, 0, 0)" stroke="rgb(0, 0, 0)"
                    stroke-width="0.038" data-glyph-w="8.68496863930884" data-glyph-h="28.085759999999997"
                    data-glyph-ascender="22.302719999999997" data-glyph-descender="-5.78304" data-kerning="0"></path>
                <path
                    d="M7.26-4.52L3.20-16.10L0.28-16.10L5.90 0L8.59 0L11.98-11.04L12.17-11.04L15.55 0L18.25 0L23.87-16.10L20.94-16.10L16.89-4.52L13.29-16.10L10.85-16.10Z"
                    transform="translate(202.78586660230744 31) " fill="rgb(0, 0, 0)" stroke="rgb(0, 0, 0)"
                    stroke-width="0.038" data-glyph-w="26.51792863930884" data-glyph-h="28.085759999999997"
                    data-glyph-ascender="22.302719999999997" data-glyph-descender="-5.78304" data-kerning="0">
                </path>
                <path
                    d="M4.52-3.66L12.58-3.66L14.19 0L17.10 0L10.00-16.10L7.10-16.10L0 0L2.90 0ZM11.47-6.17L5.62-6.17L8.55-12.81Z"
                    transform="translate(228.54348528916987 31) " fill="rgb(0, 0, 0)" stroke="rgb(0, 0, 0)"
                    stroke-width="0.038" data-glyph-w="19.46768863930884" data-glyph-h="28.085759999999997"
                    data-glyph-ascender="22.302719999999997" data-glyph-descender="-5.78304"
                    data-kerning="-0.7603099524464071"></path>
                <path
                    d="M15.09-10.87C15.09-14.47 13.22-16.10 8.23-16.10L2.23-16.10L2.23 0L4.95 0L4.95-5.41L7.81-5.41L8.52-5.41L12.37 0L15.83 0L11.61-5.85C13.85-6.52 15.09-8.02 15.09-10.87ZM12.30-10.87C12.30-8.94 11.59-7.88 8.34-7.88L4.95-7.88L4.95-13.64L8.41-13.64C11.29-13.64 12.30-13.04 12.30-10.87Z"
                    transform="translate(248.0111739284787 31) " fill="rgb(0, 0, 0)" stroke="rgb(0, 0, 0)"
                    stroke-width="0.038" data-glyph-w="19.14512863930884" data-glyph-h="28.085759999999997"
                    data-glyph-ascender="22.302719999999997" data-glyph-descender="-5.78304" data-kerning="0">
                </path>
                <path
                    d="M13.55-16.10L2.23-16.10L2.23 0L13.82 0L13.82-2.56L4.95-2.56L4.95-6.87L12.67-6.87L12.67-9.29L4.95-9.29L4.95-13.55L13.55-13.55Z"
                    transform="translate(267.1563025677876 31) " fill="rgb(0, 0, 0)" stroke="rgb(0, 0, 0)"
                    stroke-width="0.038" data-glyph-w="17.44016863930884" data-glyph-h="28.085759999999997"
                    data-glyph-ascender="22.302719999999997" data-glyph-descender="-5.78304" data-kerning="0">
                </path>
                <path
                    d="M2.23 0L4.95 0L4.95-6.59L12.95-6.59L12.95 0L15.67 0L15.67-16.10L12.95-16.10L12.95-9.12L4.95-9.12L4.95-16.10L2.23-16.10Z"
                    transform="translate(284.59647120709644 31) " fill="rgb(0, 0, 0)" stroke="rgb(0, 0, 0)"
                    stroke-width="0.038" data-glyph-w="20.27408863930884" data-glyph-h="28.085759999999997"
                    data-glyph-ascender="22.302719999999997" data-glyph-descender="-5.78304" data-kerning="0">
                </path>
                <path
                    d="M9.68-14.01C12.90-14.01 15.37-11.38 15.37-8.16C15.37-4.95 12.90-2.33 9.68-2.33C6.45-2.33 3.99-4.95 3.99-8.16C3.99-11.38 6.45-14.01 9.68-14.01ZM9.68 0.16C14.45 0.16 18.16-3.41 18.16-8.18C18.16-12.93 14.45-16.50 9.68-16.50C4.91-16.50 1.20-12.93 1.20-8.18C1.20-3.41 4.91 0.16 9.68 0.16Z"
                    transform="translate(304.8705598464053 31) " fill="rgb(0, 0, 0)" stroke="rgb(0, 0, 0)"
                    stroke-width="0.038" data-glyph-w="21.725608639308838" data-glyph-h="28.085759999999997"
                    data-glyph-ascender="22.302719999999997" data-glyph-descender="-5.78304" data-kerning="0">
                </path>
                <path
                    d="M8.85-2.40C6.34-2.40 4.75-4.22 4.75-7.19L4.75-16.10L2.03-16.10L2.03-7.07C2.03-2.26 5.05 0.16 8.85 0.16C12.65 0.16 15.67-2.26 15.67-7.07L15.67-16.10L12.95-16.10L12.95-7.19C12.95-4.22 11.36-2.40 8.85-2.40Z"
                    transform="translate(326.59616848571414 31) " fill="rgb(0, 0, 0)" stroke="rgb(0, 0, 0)"
                    stroke-width="0.038" data-glyph-w="20.066728639308838" data-glyph-h="28.085759999999997"
                    data-glyph-ascender="22.302719999999997" data-glyph-descender="-5.78304" data-kerning="0">
                </path>
                <path
                    d="M4.40-12.03C4.40-13.43 5.64-13.99 7.12-13.99C8.66-13.99 10.48-13.39 11.45-12.51L12.90-14.56C11.38-15.83 9.22-16.50 7.21-16.50C4.24-16.50 1.57-15.02 1.57-11.77C1.57-8.78 3.50-7.72 6.94-6.91C9.91-6.20 10.55-5.60 10.55-4.42C10.55-3.18 9.45-2.35 7.70-2.35C5.71-2.35 4.17-3.13 2.63-4.47L0.92-2.42C2.86-0.69 5.18 0.18 7.63 0.18C11.01 0.18 13.39-1.64 13.39-4.70C13.39-7.40 11.61-8.64 8.20-9.47C5.14-10.21 4.40-10.76 4.40-12.03Z"
                    transform="translate(346.662897125023 31) " fill="rgb(0, 0, 0)" stroke="rgb(0, 0, 0)"
                    stroke-width="0.038" data-glyph-w="16.887208639308838" data-glyph-h="28.085759999999997"
                    data-glyph-ascender="22.302719999999997" data-glyph-descender="-5.78304" data-kerning="0">
                </path>
                <path
                    d="M13.55-16.10L2.23-16.10L2.23 0L13.82 0L13.82-2.56L4.95-2.56L4.95-6.87L12.67-6.87L12.67-9.29L4.95-9.29L4.95-13.55L13.55-13.55Z"
                    transform="translate(363.5501057643318 31) " fill="rgb(0, 0, 0)" stroke="rgb(0, 0, 0)"
                    stroke-width="0.038" data-glyph-w="17.44016863930884" data-glyph-h="28.085759999999997"
                    data-glyph-ascender="22.302719999999997" data-glyph-descender="-5.78304" data-kerning="0">
                </path>
            </g>
        </svg>
    </g>
</svg>