<svg viewBox="0 0 250 250" width="250" height="250" preserveAspectRatio="none" version="1.1"
    xmlns="http://www.w3.org/2000/svg" xmlns:xlink="http://www.w3.org/1999/xlink">
    <g>
        <g transform="translate(-2,-2)" filter="" style="opacity: 1;">
            <g>
                <rect fill="rgba(0,0,0,0)" width="276.74179455557" height="276.74179455557" x="-10" y="-10"></rect>
                <svg viewBox="324.27239605666 157.64711547708 154.78258043549 154.78258043548996"
                    width="256.74179455557" height="256.74179455557" preserveAspectRatio="none" version="1.1"
                    xmlns="http://www.w3.org/2000/svg" style="background: transparent;">
                    <mask is-reverse="false">
                        <g
                            transform="translate(325.27239605666,158.64711547708) rotate(0,76.391290217745,76.391290217745) scale(1,1)">
                            <svg xmlns="http://www.w3.org/2000/svg" viewBox="0 0 152.78258043549 152.78258043549"
                                width="152.78258043549" height="152.78258043549" preserveAspectRatio="none">
                                <rect width="152.78258043549" height="152.78258043549" x="0" y="0" fill="#ffffff" rx="0"
                                    ry="0" stroke-width="0">
                                </rect>
                            </svg>
                        </g>
                    </mask>
                    <g>
                        <g transform="translate(325.27239605666,158.64711547708) rotate(0,76.391290217745,76.391290217745) scale(1,1)"
                            display="inline" opacity="1">
                            <g style="" display="inline">
                                <svg xmlns="http://www.w3.org/2000/svg" viewBox="0 0 152.78258043549 152.78258043549"
                                    width="152.78258043549" height="152.78258043549" preserveAspectRatio="none">
                                    <rect width="152.78258043549" height="152.78258043549" x="0" y="0" fill="#000000"
                                        rx="0" ry="0" stroke-width="0"></rect>
                                </svg>
                            </g>
                        </g>
                    </g>
                    <g>
                        <g transform="translate(-327.77937947235,-514.9254784483301) rotate(0,718.95141803795,771.95141803795) scale(1,1)"
                            display="inline" opacity="1">
                            <g style="" display="inline">
                                <svg xmlns="http://www.w3.org/2000/svg" version="1.1"
                                    xmlns:xlink="http://www.w3.org/1999/xlink" width="1437.9028360759"
                                    height="1543.9028360759" viewBox="0 0 1437.9028360759 1543.9028360759"
                                    data-ligature="true" preserveAspectRatio="none">
                                    <g data-role="text" data-width="150.56480185103482" data-height="257"
                                        transform="translate(643.6690171124326, 643.45141803795)">
                                        <path
                                            d="M17.80 80.64L17.80 80.64Q10.51 80.64 5.36 78.71L5.36 78.71Q-2.79 75.71-6.54 71.74Q-10.30 67.78-10.30 63.27L-10.30 63.27Q-10.30 57.48-4.61 51.15Q1.07 44.83 11.15 38.93Q21.23 33.03 34.32 28.63Q47.40 24.24 62.20 22.09L62.20 22.09Q68.85 21.02 76.89 20.38Q84.93 19.73 93.19 19.20Q101.45 18.66 108.10 18.66L108.10 18.66Q116.03 5.15 121.07-6.86Q126.11-18.87 129.97-34.53L129.97-34.53L130.83-37.96Q126.76-34.10 119.36-28.63Q111.96-23.16 102.20-17.69Q92.44-12.23 81.40-8.58Q70.35-4.93 58.77-4.93L58.77-4.93Q49.76-4.93 41.39-7.72L41.39-7.72Q32.39-10.94 25.20-18.55Q18.02-26.17 13.83-37.43Q9.65-48.69 9.65-62.41L9.65-62.41Q9.65-72.49 12.23-83.97Q14.80-95.44 20.59-107.45L20.59-107.45Q13.94-114.32 10.19-122.68Q6.43-131.05 6.43-139.84L6.43-139.84Q6.43-147.56 9.65-155.18Q12.87-162.79 19.73-169.87L19.73-169.87Q21.66-172.01 23.38-172.01L23.38-172.01Q24.24-172.01 24.24-171.16L24.24-171.16Q24.24-169.87 22.73-168.15L22.73-168.15Q17.80-162.15 15.44-155.50Q13.08-148.85 13.08-142.20L13.08-142.20Q13.08-134.69 15.98-127.40Q18.87-120.11 24.24-113.89L24.24-113.89Q25.31-116.03 26.49-118.18Q27.67-120.32 28.95-122.47L28.95-122.47Q39.25-139.20 54.16-151.21Q69.06-163.22 86.01-169.76Q102.95-176.30 119.04-176.30L119.04-176.30Q121.82-176.30 124.51-176.09Q127.19-175.87 129.97-175.44L129.97-175.44Q150.78-172.23 161.07-161.50Q171.37-150.78 171.37-137.48L171.37-137.48Q171.37-128.26 166.33-119.04Q161.29-109.81 151.10-102.09Q140.91-94.37 125.79-89.65Q110.67-84.93 90.73-84.51L90.73-84.51Q75.07-84.29 59.84-88.47Q44.61-92.66 34.10-99.52L34.10-99.52Q28.74-88.15 26.27-77.32Q23.81-66.49 23.81-57.05L23.81-57.05Q23.81-41.18 30.46-29.81Q37.11-18.45 48.90-14.58L48.90-14.58Q52.33-13.51 55.87-13.08Q59.41-12.65 62.84-12.65L62.84-12.65Q72.49-12.65 82.25-15.55Q92.01-18.45 100.38-23.16Q108.74-27.88 114.64-33.14Q120.54-38.39 122.47-42.90L122.47-42.90Q127.40-54.05 132.23-58.45Q137.05-62.84 140.91-62.84L140.91-62.84Q144.13-62.84 146.38-59.95Q148.63-57.05 147.99-52.12L147.99-52.12Q145.85-34.32 138.23-17.59Q130.62-0.86 118.61 18.66L118.61 18.66Q133.19 18.87 144.88 20.27Q156.57 21.66 166.01 24.02L166.01 24.02Q168.58 24.67 169.55 25.63Q170.51 26.60 170.51 27.24L170.51 27.24Q170.51 28.74 167.94 28.74L167.94 28.74Q166.65 28.74 164.29 28.10L164.29 28.10Q159.36 26.81 151.21 25.84Q143.06 24.88 133.73 24.45Q124.40 24.02 115.82 24.02L115.82 24.02Q106.81 36.89 94.48 47.29Q82.15 57.70 68.42 65.20Q54.69 72.71 41.50 76.68Q28.31 80.64 17.80 80.64ZM84.93-90.94L84.93-90.94Q87.29-90.94 89.65-91.05Q92.01-91.15 94.37-91.37L94.37-91.37Q116.03-93.51 131.15-101.34Q146.28-109.17 154.10-119.89Q161.93-130.62 161.93-140.91L161.93-140.91Q161.93-150.99 154.32-158.82Q146.70-166.65 131.05-169.01L131.05-169.01Q128.90-169.44 127.51-169.44Q126.11-169.44 123.75-169.44L123.75-169.44Q109.81-169.44 94.91-162.79Q80.00-156.14 66.60-144.24Q53.19-132.33 43.54-116.68L43.54-116.68Q41.18-112.60 39.89-110.46Q38.61-108.31 36.89-105.31L36.89-105.31Q45.68-98.66 58.23-94.80Q70.78-90.94 84.93-90.94ZM17.59 74.00L17.59 74.00Q25.95 74.00 37.32 70.89Q48.69 67.78 61.02 61.45Q73.35 55.12 84.72 45.90Q96.09 36.68 104.67 24.45L104.67 24.45Q94.37 24.67 84.40 25.42Q74.42 26.17 64.56 27.88L64.56 27.88Q54.05 29.60 42.79 33.78Q31.53 37.96 21.98 43.54Q12.44 49.12 6.54 54.80Q0.64 60.48 0.64 65.20L0.64 65.20Q0.64 67.99 3.11 70.13Q5.58 72.28 10.94 73.35L10.94 73.35Q13.94 74.00 17.59 74.00Z"
                                            transform="translate(0 176) " fill="#ffffff" stroke="#ffffff"
                                            stroke-width="0.357" data-glyph-w="159.477119043105"
                                            data-glyph-h="268.52896" data-glyph-ascender="182.52248"
                                            data-glyph-descender="-86.00648" data-kerning="0"></path>
                                    </g>
                                </svg>
                            </g>
                        </g>
                    </g>
                </svg>
            </g>
        </g>
    </g>
</svg>