<svg xmlns="http://www.w3.org/2000/svg" version="1.1" xmlns:xlink="http://www.w3.org/1999/xlink"
    width="400" height="30" viewBox="0 0 400 30">
    <g transform="translate(10, -7)">
        <path
            d="M14.79-10.53C14.79-14.12 12.76-16.10 7.76-16.10L2.23-16.10L2.23 0L4.95 0L4.95-4.72L7.81-4.72C12.42-4.72 14.79-6.34 14.79-10.53ZM12.00-10.53C12.00-8.64 11.36-7.19 8.11-7.19L4.95-7.19L4.95-13.64L7.72-13.64C10.55-13.64 12.00-12.93 12.00-10.53Z"
            transform="translate(0 31) " fill="rgb(0, 0, 0)" stroke="rgb(0, 0, 0)" stroke-width="0.038"
            data-glyph-w="18.13136863930884" data-glyph-h="28.085759999999997" data-glyph-ascender="22.302719999999997"
            data-glyph-descender="-5.78304" data-kerning="0">
        </path>
        <path
            d="M2.23 0L4.95 0L4.95-6.59L12.95-6.59L12.95 0L15.67 0L15.67-16.10L12.95-16.10L12.95-9.12L4.95-9.12L4.95-16.10L2.23-16.10Z"
            transform="translate(18.13136863930884 31) " fill="rgb(0, 0, 0)" stroke="rgb(0, 0, 0)" stroke-width="0.038"
            data-glyph-w="20.27408863930884" data-glyph-h="28.085759999999997" data-glyph-ascender="22.302719999999997"
            data-glyph-descender="-5.78304" data-kerning="0">
        </path>
        <path
            d="M9.68-14.01C12.90-14.01 15.37-11.38 15.37-8.16C15.37-4.95 12.90-2.33 9.68-2.33C6.45-2.33 3.99-4.95 3.99-8.16C3.99-11.38 6.45-14.01 9.68-14.01ZM9.68 0.16C14.45 0.16 18.16-3.41 18.16-8.18C18.16-12.93 14.45-16.50 9.68-16.50C4.91-16.50 1.20-12.93 1.20-8.18C1.20-3.41 4.91 0.16 9.68 0.16Z"
            transform="translate(38.405457278617675 31) " fill="rgb(0, 0, 0)" stroke="rgb(0, 0, 0)" stroke-width="0.038"
            data-glyph-w="21.725608639308838" data-glyph-h="28.085759999999997" data-glyph-ascender="22.302719999999997"
            data-glyph-descender="-5.78304" data-kerning="0">
        </path>
        <path d="M8.32-13.62L13.20-13.62L13.20-16.10L0.71-16.10L0.71-13.62L5.60-13.62L5.60 0L8.32 0Z"
            transform="translate(59.69331170288161 31) " fill="rgb(0, 0, 0)" stroke="rgb(0, 0, 0)" stroke-width="0.038"
            data-glyph-w="16.28816863930884" data-glyph-h="28.085759999999997" data-glyph-ascender="22.302719999999997"
            data-glyph-descender="-5.78304" data-kerning="-0.43775421504490103"></path>
        <path
            d="M9.68-14.01C12.90-14.01 15.37-11.38 15.37-8.16C15.37-4.95 12.90-2.33 9.68-2.33C6.45-2.33 3.99-4.95 3.99-8.16C3.99-11.38 6.45-14.01 9.68-14.01ZM9.68 0.16C14.45 0.16 18.16-3.41 18.16-8.18C18.16-12.93 14.45-16.50 9.68-16.50C4.91-16.50 1.20-12.93 1.20-8.18C1.20-3.41 4.91 0.16 9.68 0.16Z"
            transform="translate(75.54372612714555 31) " fill="rgb(0, 0, 0)" stroke="rgb(0, 0, 0)" stroke-width="0.038"
            data-glyph-w="21.725608639308838" data-glyph-h="28.085759999999997" data-glyph-ascender="22.302719999999997"
            data-glyph-descender="-5.78304" data-kerning="-0.43775421504490103"></path>
        <path
            d="M13.39-7.83L13.39-3.41C12.30-2.72 11.01-2.42 9.61-2.42C6.57-2.42 4.03-4.56 4.03-8.11C4.03-11.61 6.61-13.82 9.79-13.82C11.40-13.82 12.60-13.52 13.92-12.40L15.37-14.47C14.05-15.62 12.23-16.50 9.68-16.50C4.95-16.50 1.20-12.93 1.20-8.16C1.20-3.27 4.86 0.18 9.58 0.18C12.60 0.18 14.77-0.85 16.10-2.33L16.10-7.83Z"
            transform="translate(97.26933476645439 31) " fill="rgb(0, 0, 0)" stroke="rgb(0, 0, 0)" stroke-width="0.038"
            data-glyph-w="19.81328863930884" data-glyph-h="28.085759999999997" data-glyph-ascender="22.302719999999997"
            data-glyph-descender="-5.78304" data-kerning="0">
        </path>
        <path
            d="M15.09-10.87C15.09-14.47 13.22-16.10 8.23-16.10L2.23-16.10L2.23 0L4.95 0L4.95-5.41L7.81-5.41L8.52-5.41L12.37 0L15.83 0L11.61-5.85C13.85-6.52 15.09-8.02 15.09-10.87ZM12.30-10.87C12.30-8.94 11.59-7.88 8.34-7.88L4.95-7.88L4.95-13.64L8.41-13.64C11.29-13.64 12.30-13.04 12.30-10.87Z"
            transform="translate(117.08262340576323 31) " fill="rgb(0, 0, 0)" stroke="rgb(0, 0, 0)" stroke-width="0.038"
            data-glyph-w="19.14512863930884" data-glyph-h="28.085759999999997" data-glyph-ascender="22.302719999999997"
            data-glyph-descender="-5.78304" data-kerning="0">
        </path>
        <path
            d="M4.52-3.66L12.58-3.66L14.19 0L17.10 0L10.00-16.10L7.10-16.10L0 0L2.90 0ZM11.47-6.17L5.62-6.17L8.55-12.81Z"
            transform="translate(136.22775204507207 31) " fill="rgb(0, 0, 0)" stroke="rgb(0, 0, 0)" stroke-width="0.038"
            data-glyph-w="19.46768863930884" data-glyph-h="28.085759999999997" data-glyph-ascender="22.302719999999997"
            data-glyph-descender="-5.78304" data-kerning="0">
        </path>
        <path
            d="M14.79-10.53C14.79-14.12 12.76-16.10 7.76-16.10L2.23-16.10L2.23 0L4.95 0L4.95-4.72L7.81-4.72C12.42-4.72 14.79-6.34 14.79-10.53ZM12.00-10.53C12.00-8.64 11.36-7.19 8.11-7.19L4.95-7.19L4.95-13.64L7.72-13.64C10.55-13.64 12.00-12.93 12.00-10.53Z"
            transform="translate(155.6954406843809 31) " fill="rgb(0, 0, 0)" stroke="rgb(0, 0, 0)" stroke-width="0.038"
            data-glyph-w="18.13136863930884" data-glyph-h="28.085759999999997" data-glyph-ascender="22.302719999999997"
            data-glyph-descender="-5.78304" data-kerning="0">
        </path>
        <path
            d="M2.23 0L4.95 0L4.95-6.59L12.95-6.59L12.95 0L15.67 0L15.67-16.10L12.95-16.10L12.95-9.12L4.95-9.12L4.95-16.10L2.23-16.10Z"
            transform="translate(173.82680932368976 31) " fill="rgb(0, 0, 0)" stroke="rgb(0, 0, 0)" stroke-width="0.038"
            data-glyph-w="20.27408863930884" data-glyph-h="28.085759999999997" data-glyph-ascender="22.302719999999997"
            data-glyph-descender="-5.78304" data-kerning="0">
        </path>
        <path d="M0,0Z" transform="translate(194.1008979629986 31) " fill="rgb(0, 0, 0)" stroke="rgb(0, 0, 0)"
            stroke-width="0.038" data-glyph-w="8.68496863930884" data-glyph-h="28.085759999999997"
            data-glyph-ascender="22.302719999999997" data-glyph-descender="-5.78304" data-kerning="0"></path>
        <path
            d="M7.26-4.52L3.20-16.10L0.28-16.10L5.90 0L8.59 0L11.98-11.04L12.17-11.04L15.55 0L18.25 0L23.87-16.10L20.94-16.10L16.89-4.52L13.29-16.10L10.85-16.10Z"
            transform="translate(202.78586660230744 31) " fill="rgb(0, 0, 0)" stroke="rgb(0, 0, 0)" stroke-width="0.038"
            data-glyph-w="26.51792863930884" data-glyph-h="28.085759999999997" data-glyph-ascender="22.302719999999997"
            data-glyph-descender="-5.78304" data-kerning="0">
        </path>
        <path
            d="M4.52-3.66L12.58-3.66L14.19 0L17.10 0L10.00-16.10L7.10-16.10L0 0L2.90 0ZM11.47-6.17L5.62-6.17L8.55-12.81Z"
            transform="translate(228.54348528916987 31) " fill="rgb(0, 0, 0)" stroke="rgb(0, 0, 0)" stroke-width="0.038"
            data-glyph-w="19.46768863930884" data-glyph-h="28.085759999999997" data-glyph-ascender="22.302719999999997"
            data-glyph-descender="-5.78304" data-kerning="-0.7603099524464071"></path>
        <path
            d="M15.09-10.87C15.09-14.47 13.22-16.10 8.23-16.10L2.23-16.10L2.23 0L4.95 0L4.95-5.41L7.81-5.41L8.52-5.41L12.37 0L15.83 0L11.61-5.85C13.85-6.52 15.09-8.02 15.09-10.87ZM12.30-10.87C12.30-8.94 11.59-7.88 8.34-7.88L4.95-7.88L4.95-13.64L8.41-13.64C11.29-13.64 12.30-13.04 12.30-10.87Z"
            transform="translate(248.0111739284787 31) " fill="rgb(0, 0, 0)" stroke="rgb(0, 0, 0)" stroke-width="0.038"
            data-glyph-w="19.14512863930884" data-glyph-h="28.085759999999997" data-glyph-ascender="22.302719999999997"
            data-glyph-descender="-5.78304" data-kerning="0">
        </path>
        <path
            d="M13.55-16.10L2.23-16.10L2.23 0L13.82 0L13.82-2.56L4.95-2.56L4.95-6.87L12.67-6.87L12.67-9.29L4.95-9.29L4.95-13.55L13.55-13.55Z"
            transform="translate(267.1563025677876 31) " fill="rgb(0, 0, 0)" stroke="rgb(0, 0, 0)" stroke-width="0.038"
            data-glyph-w="17.44016863930884" data-glyph-h="28.085759999999997" data-glyph-ascender="22.302719999999997"
            data-glyph-descender="-5.78304" data-kerning="0">
        </path>
        <path
            d="M2.23 0L4.95 0L4.95-6.59L12.95-6.59L12.95 0L15.67 0L15.67-16.10L12.95-16.10L12.95-9.12L4.95-9.12L4.95-16.10L2.23-16.10Z"
            transform="translate(284.59647120709644 31) " fill="rgb(0, 0, 0)" stroke="rgb(0, 0, 0)" stroke-width="0.038"
            data-glyph-w="20.27408863930884" data-glyph-h="28.085759999999997" data-glyph-ascender="22.302719999999997"
            data-glyph-descender="-5.78304" data-kerning="0">
        </path>
        <path
            d="M9.68-14.01C12.90-14.01 15.37-11.38 15.37-8.16C15.37-4.95 12.90-2.33 9.68-2.33C6.45-2.33 3.99-4.95 3.99-8.16C3.99-11.38 6.45-14.01 9.68-14.01ZM9.68 0.16C14.45 0.16 18.16-3.41 18.16-8.18C18.16-12.93 14.45-16.50 9.68-16.50C4.91-16.50 1.20-12.93 1.20-8.18C1.20-3.41 4.91 0.16 9.68 0.16Z"
            transform="translate(304.8705598464053 31) " fill="rgb(0, 0, 0)" stroke="rgb(0, 0, 0)" stroke-width="0.038"
            data-glyph-w="21.725608639308838" data-glyph-h="28.085759999999997" data-glyph-ascender="22.302719999999997"
            data-glyph-descender="-5.78304" data-kerning="0">
        </path>
        <path
            d="M8.85-2.40C6.34-2.40 4.75-4.22 4.75-7.19L4.75-16.10L2.03-16.10L2.03-7.07C2.03-2.26 5.05 0.16 8.85 0.16C12.65 0.16 15.67-2.26 15.67-7.07L15.67-16.10L12.95-16.10L12.95-7.19C12.95-4.22 11.36-2.40 8.85-2.40Z"
            transform="translate(326.59616848571414 31) " fill="rgb(0, 0, 0)" stroke="rgb(0, 0, 0)" stroke-width="0.038"
            data-glyph-w="20.066728639308838" data-glyph-h="28.085759999999997" data-glyph-ascender="22.302719999999997"
            data-glyph-descender="-5.78304" data-kerning="0">
        </path>
        <path
            d="M4.40-12.03C4.40-13.43 5.64-13.99 7.12-13.99C8.66-13.99 10.48-13.39 11.45-12.51L12.90-14.56C11.38-15.83 9.22-16.50 7.21-16.50C4.24-16.50 1.57-15.02 1.57-11.77C1.57-8.78 3.50-7.72 6.94-6.91C9.91-6.20 10.55-5.60 10.55-4.42C10.55-3.18 9.45-2.35 7.70-2.35C5.71-2.35 4.17-3.13 2.63-4.47L0.92-2.42C2.86-0.69 5.18 0.18 7.63 0.18C11.01 0.18 13.39-1.64 13.39-4.70C13.39-7.40 11.61-8.64 8.20-9.47C5.14-10.21 4.40-10.76 4.40-12.03Z"
            transform="translate(346.662897125023 31) " fill="rgb(0, 0, 0)" stroke="rgb(0, 0, 0)" stroke-width="0.038"
            data-glyph-w="16.887208639308838" data-glyph-h="28.085759999999997" data-glyph-ascender="22.302719999999997"
            data-glyph-descender="-5.78304" data-kerning="0">
        </path>
        <path
            d="M13.55-16.10L2.23-16.10L2.23 0L13.82 0L13.82-2.56L4.95-2.56L4.95-6.87L12.67-6.87L12.67-9.29L4.95-9.29L4.95-13.55L13.55-13.55Z"
            transform="translate(363.5501057643318 31) " fill="rgb(0, 0, 0)" stroke="rgb(0, 0, 0)" stroke-width="0.038"
            data-glyph-w="17.44016863930884" data-glyph-h="28.085759999999997" data-glyph-ascender="22.302719999999997"
            data-glyph-descender="-5.78304" data-kerning="0">
        </path>
    </g>
</svg>