<svg xmlns="http://www.w3.org/2000/svg" version="1.1" xmlns:xlink="http://www.w3.org/1999/xlink"
    width="520" height="140" viewBox="0 0 520 140">
    <g data-role="text" transform="translate(5 0)" >
        <path
            d="M104.14-6.54L117.09-6.54L113.46 11.87L73.38 11.87L73.38-41.05L50.01-41.05L31.24 12.35L9.93 12.35L28.94-41.05L6.90-41.05L6.90-56.06L51.95-56.06L51.95-97.11L71.08-97.11L71.08-56.06L114.19-56.06L114.19-41.05L93.36-41.05L93.36-1.82L103.05-1.82L104.14-6.54ZM42.38-61.27L22.52-61.27L10.41-93.12L29.91-93.12L42.38-61.27ZM110.92-93.12L98.81-61.27L78.95-61.27L91.42-93.12L110.92-93.12Z"
            transform="translate(0 114) " fill="rgb(0, 0, 0)" stroke="rgb(0, 0, 0)" stroke-width="0.202"
            data-glyph-w="128.47437120206826" data-glyph-h="121.09" data-glyph-ascender="102.9265"
            data-glyph-descender="-18.1635" data-kerning="0"></path>
        <path
            d="M108.98-49.89L115.04-49.89L115.04-37.30L38.02-37.30L38.02-49.89L51.58-49.89L54.13-63.81L42.99-63.81L42.99-76.29L56.43-76.29L57.76-84.04L41.53-84.04L41.53-96.75L111.16-96.75L111.16-84.04L77.26-84.04L75.68-76.29L108.98-76.29L108.98-49.89ZM33.06-75.80L13.56-75.80L8.96-96.51L28.58-96.51L33.06-75.80ZM31.73-65.63L31.73-8.36L38.02-11.02L38.02 3.39L14.17 12.11L14.17-52.19L7.75-52.19L7.75-65.63L31.73-65.63ZM73.14-63.81L70.35-49.89L90.09-49.89L90.09-63.81L73.14-63.81ZM42.50 10.53L42.50-32.45L109.34-32.45L109.34 10.53L42.50 10.53ZM61.27-19.86L61.27-2.79L90.94-2.79L90.94-19.86L61.27-19.86Z"
            transform="translate(128.47437120206826 114) " fill="rgb(0, 0, 0)" stroke="rgb(0, 0, 0)"
            stroke-width="0.202" data-glyph-w="128.47437120206826" data-glyph-h="121.09" data-glyph-ascender="102.9265"
            data-glyph-descender="-18.1635" data-kerning="0"></path>
        <path
            d="M49.28-57.88L34.87-57.88L34.87 11.99L19.86 11.99L19.86-57.88L6.30-57.88L6.30-70.84L19.86-70.84L19.86-79.31L7.51-77.74L7.51-91.79L48.07-96.75L48.07-83.07L34.87-81.37L34.87-70.84L49.28-70.84L49.28-57.88ZM98.20-1.82L100.26-7.99L115.64-7.99L109.95 10.53L66.84 10.53L66.84 1.21L62.36 9.81L45.65 9.81L47.71 6.05L38.14 6.05L36.57-52.80L47.47-52.80L49.04 3.39L61.51-20.10L50.13-20.10L51.46-74.71L64.18-74.71L62.97-22.64L66.84-30.03L66.84-79.56L82.46-79.56L82.46-59.33L94.33-81.61L80.16-81.61L75.68-95.90L92.15-95.90L95.78-84.40L98.45-89.36L114.31-89.36L82.46-28.58L82.46-1.82L98.20-1.82ZM97.84-55.70L113.58-55.70L116.73-11.62L100.99-11.62L97.84-55.70ZM4.36 7.27L7.39-52.80L18.04-52.80L15.26 7.27L4.36 7.27Z"
            transform="translate(256.9487424041365 114) " fill="rgb(0, 0, 0)" stroke="rgb(0, 0, 0)" stroke-width="0.202"
            data-glyph-w="128.47437120206826" data-glyph-h="121.09" data-glyph-ascender="102.9265"
            data-glyph-descender="-18.1635" data-kerning="0"></path>
        <path
            d="M30.39-59.94L30.39-12.71L40.08-14.65L40.08 0L5.93 6.78L5.93-7.87L13.44-9.32L13.44-59.94L5.45-59.94L5.45-73.99L13.44-73.99L13.44-96.87L30.39-96.87L30.39-73.99L38.75-73.99L38.75-59.94L30.39-59.94ZM111.52-91.91L111.52-80.52L43.47-80.52L43.47-91.91L67.33-91.91L65.99-96.87L85.85-96.87L87.67-91.91L111.52-91.91ZM114.07-70.84L114.07-59.46L39.96-59.46L39.96-70.84L52.80-70.84L49.89-77.98L67.08-77.98L70.72-70.84L84.40-70.84L89.12-77.98L106.32-77.98L102.08-70.84L114.07-70.84ZM105.71-4.48L116.13-4.48L113.22 11.14L82.10 11.14L82.10-13.56L72.90-13.56L62.48 11.87L45.17 11.87L41.53-0.97L49.65-0.97L54.85-13.56L43.47-13.56L43.47-54.37L111.16-54.37L111.16-13.56L98.45-13.56L98.45 0L104.86 0L105.71-4.48ZM95.06-44.68L59.46-44.68L59.46-38.99L95.06-38.99L95.06-44.68ZM59.46-29.42L59.46-23.49L95.06-23.49L95.06-29.42L59.46-29.42Z"
            transform="translate(385.42311360620477 114) " fill="rgb(0, 0, 0)" stroke="rgb(0, 0, 0)"
            stroke-width="0.202" data-glyph-w="128.47437120206826" data-glyph-h="121.09" data-glyph-ascender="102.9265"
            data-glyph-descender="-18.1635" data-kerning="0"></path>
    </g>
</svg>